<?xml version="1.0" encoding="UTF-8" standalone="no"?>
<!-- Created with Inkscape (http://www.inkscape.org/) -->

<svg
   version="1.1"
   id="svg869"
   width="284.49173"
   height="95.643967"
   viewBox="0 0 284.49173 95.643967"
   xmlns="http://www.w3.org/2000/svg"
   xmlns:svg="http://www.w3.org/2000/svg"
   xmlns:rdf="http://www.w3.org/1999/02/22-rdf-syntax-ns#"
   xmlns:cc="http://creativecommons.org/ns#"
   xmlns:dc="http://purl.org/dc/elements/1.1/">
  <metadata
     id="metadata875">
    <rdf:RDF>
      <cc:Work
         rdf:about="">
        <dc:format>image/svg+xml</dc:format>
        <dc:type
           rdf:resource="http://purl.org/dc/dcmitype/StillImage" />
      </cc:Work>
    </rdf:RDF>
  </metadata>
  <defs
     id="defs873" />
  <g
     id="g909"
     transform="translate(-49.813645,-124.89012)">
    <path
       style="fill:#aedbfc;stroke-width:0.666667"
       d="M 63.015292,207.33247 49.813646,194.13083 v -21.55767 -21.55767 l 12.166667,-12.2983 c 6.691666,-6.76406 12.916666,-12.68863 13.833333,-13.16571 1.307237,-0.68035 6.195488,-0.79456 22.666667,-0.52956 l 20.999997,0.33787 13.20193,13.08716 13.20192,13.08717 -0.3751,6.33333 c -0.20631,3.48334 -0.59717,13.16466 -0.86859,21.51405 l -0.49349,15.18072 -12.69201,12.54267 -12.692,12.54267 -7.64133,0.44025 c -4.20273,0.24214 -13.775587,0.44161 -21.273015,0.44328 l -13.631687,0.003 z m 52.621258,-15.62081 7.51043,-7.48912 v -10.66711 -10.66711 l -7.48913,-7.51044 -7.48912,-7.51043 H 97.834952 87.501175 l -7.510431,7.48913 -7.510431,7.48912 v 10.04503 10.04503 l 8.226116,8.13251 8.226116,8.13252 h 9.596786 9.596789 z"
       id="path893" />
    <path
       style="fill:#d0d0d0;stroke-width:0.666667"
       d="m 63.931531,206.91529 -13.117885,-12.95217 -0.433191,-6.54783 c -0.238255,-3.60131 -0.463255,-13.15448 -0.5,-21.22927 l -0.06681,-14.68144 2.053641,-2.49142 c 1.129502,-1.37029 2.375854,-2.29229 2.769672,-2.04889 0.393817,0.24339 0.530346,0.14208 0.303398,-0.22513 -0.534791,-0.86531 3.122092,-4.38446 3.859728,-3.71435 0.308364,0.28013 0.376039,0.18478 0.150388,-0.21189 -0.524366,-0.92179 5.751186,-7.1513 6.509408,-6.46165 0.312142,0.28391 0.378456,0.18445 0.147363,-0.22103 -0.537221,-0.94262 9.931126,-11.17825 10.850973,-10.60976 0.37882,0.23413 0.688762,0.13763 0.688762,-0.21443 0,-0.40251 7.609383,-0.51434 20.5,-0.30126 l 20.500002,0.33885 13.16667,13.089 13.16666,13.089 v 5.62125 5.62126 l -9.47024,9.55166 c -5.20864,5.25341 -9.70864,9.55166 -10,9.55166 -0.29137,0 -0.52976,-4.42025 -0.52976,-9.82279 v -9.82279 l -7.91152,-7.84388 -7.91151,-7.84387 -10.588486,0.14019 -10.588482,0.1402 10.333333,0.40134 10.333335,0.40134 -11.000002,0.0619 c -6.931442,0.039 -11,0.31133 -11,0.73624 0,0.84059 -0.911396,1.78545 -1.722222,1.78545 -0.336111,0 -0.581846,0.25303 -0.546077,0.5623 0.112979,0.97685 -3.571732,4.40924 -4.270056,3.97765 -0.367211,-0.22695 -0.474607,-0.10027 -0.238657,0.2815 0.384246,0.62173 -1.426563,2.75349 -1.992118,2.34521 -0.126978,-0.0917 -0.201604,0.0114 -0.165836,0.22898 0.137261,0.83503 -3.636144,4.20276 -4.270056,3.81098 -0.36721,-0.22695 -0.469434,-0.0919 -0.227163,0.3001 0.242271,0.392 0.06362,0.8379 -0.396994,0.99089 -0.904818,0.30053 -1.638393,16.54867 -0.883023,19.55831 0.218123,0.86907 8.067503,9.16202 17.443066,18.42877 9.375564,9.26675 17.332138,17.37364 17.681268,18.01531 0.59602,1.09542 -0.28557,1.16666 -14.437458,1.16666 H 77.049416 Z"
       id="path891" />
    <path
       style="fill:#9d9d9d;stroke-width:0.666667"
       d="m 63.742717,206.70079 -13.271273,-13.16667 0.0044,-21.02195 0.0044,-21.02195 13.20466,-13.14472 13.204661,-13.14471 h 20.634924 20.634921 l 13.16042,13.17276 13.16041,13.17277 v 5.6089 5.60891 l -9.47024,9.55166 c -5.20864,5.25341 -9.70864,9.55166 -10,9.55166 -0.29137,0 -0.52976,-4.42025 -0.52976,-9.82279 v -9.82279 l -7.91152,-7.84388 -7.91151,-7.84387 H 98.135834 87.614389 l -7.313652,7.16667 c -4.022508,3.94166 -7.727676,8.13203 -8.233705,9.31192 -0.623111,1.45288 -0.920053,4.90747 -0.920053,10.70381 0,7.84378 0.125275,8.72411 1.5,10.54077 0.825,1.09021 8.65191,9.0235 17.393132,17.62952 8.741223,8.60602 16.176779,16.17231 16.523459,16.81398 0.59177,1.09531 -0.29257,1.16666 -14.459629,1.16666 h -15.08995 z"
       id="path889" />
    <path
       style="fill:#1497f8;stroke-width:0.666667"
       d="m 63.758813,206.70079 -13.255179,-13.16667 -0.01526,-20.64455 -0.01526,-20.64454 13.188787,-13.18879 13.188787,-13.18879 h 20.975228 20.975234 l 12.83958,12.82692 12.83959,12.82693 v 5.62141 5.62142 l -9.47024,9.55166 c -5.20864,5.25341 -9.70864,9.55166 -10,9.55166 -0.29137,0 -0.52976,-4.41176 -0.52976,-9.80392 v -9.80392 l -8.19608,-8.19608 -8.19607,-8.19608 H 97.843684 87.599212 l -8.226116,8.13251 -8.226117,8.13252 v 10.0713 c 0,9.41255 0.09811,10.20095 1.5,12.05351 0.825,1.09021 8.65191,9.0235 17.393132,17.62952 8.741223,8.60602 16.176779,16.17231 16.523459,16.81398 0.59177,1.09531 -0.29257,1.16666 -14.459629,1.16666 h -15.08995 z"
       id="path887" />
    <path
       style="fill:#0166cb;stroke-width:0.666667"
       d="m 61.039912,202.69852 -9.711598,-9.83107 -0.424001,-8.27133 c -0.2332,-4.54924 -0.424,-13.6909 -0.424,-20.31482 v -12.04348 l 13.29025,-13.29025 13.29025,-13.29025 8.543084,0.4357 c 4.698695,0.23963 14.064533,0.43691 20.812973,0.4384 l 12.26989,0.003 2.56345,2.69474 2.56344,2.69474 v 13.97192 c 0,7.68456 -0.23036,13.97193 -0.51192,13.97193 -0.28154,0 -3.65118,-3.15 -7.48808,-7 l -6.97618,-7 H 98.210979 87.584489 l -8.385422,8.312 -8.385421,8.31199 0.124787,10.52134 c 0.06863,5.78674 0.316176,16.7838 0.550096,24.43791 0.234756,7.68145 0.164928,14.17695 -0.155855,14.49774 -0.330442,0.33044 -4.770887,-3.6601 -10.292762,-9.24991 z"
       id="path885" />
    <path
       style="fill:#575757;stroke-width:0.666667"
       d="m 51.813646,166.3444 v -14.85638 l 12.539913,-12.47695 12.539913,-12.47695 h 5.573343 5.573344 l 9.254907,9.16667 9.254904,9.16666 -9.721822,0.33334 -9.721825,0.33333 -8.479672,8.83508 c -4.66382,4.85929 -12.367282,12.88429 -17.118806,17.83333 -4.751524,4.94904 -8.876524,8.99826 -9.166667,8.99826 -0.290143,0 -0.527532,-6.68537 -0.527532,-14.85639 z"
       id="path883" />
    <path
       style="fill:#002e99;stroke-width:0.666667"
       d="m 51.813646,166.3444 v -14.85638 l 12.539913,-12.47695 12.539913,-12.47695 h 5.573343 5.573344 l 9.254907,9.16667 9.254904,9.16666 -9.721822,0.33334 -9.721825,0.33333 -8.479672,8.83508 c -4.66382,4.85929 -12.367282,12.88429 -17.118806,17.83333 -4.751524,4.94904 -8.876524,8.99826 -9.166667,8.99826 -0.290143,0 -0.527532,-6.68537 -0.527532,-14.85639 z"
       id="path881" />
  </g>
  <g
     aria-label="rqlite"
     id="text913"
     style="font-size:40px;line-height:1.25;letter-spacing:0px;word-spacing:0px">
    <path
       d="M 120.19485,68.505577 V 36.083702 q 0,-4.453125 -0.23438,-9.84375 h 6.64063 q 0.3125,7.1875 0.3125,8.632813 h 0.15625 q 1.67968,-5.429688 3.86718,-7.421875 2.1875,-1.992188 6.17188,-1.992188 1.40625,0 2.85156,0.390625 v 6.445313 q -1.40625,-0.390625 -3.75,-0.390625 -4.375,0 -6.67969,3.789062 -2.30468,3.75 -2.30468,10.78125 v 22.03125 z"
       style="font-size:80px;fill:#333333"
       id="path1891" />
    <path
       d="m 160.19485,69.286827 q -8.04688,0 -11.79688,-5.429687 -3.75,-5.429688 -3.75,-16.289063 0,-22.109375 15.54688,-22.109375 4.80468,0 7.92968,1.71875 3.125,1.679688 5.23438,5.625 h 0.0781 q 0,-1.171875 0.15625,-4.023437 0.15625,-2.890625 0.3125,-3.085938 h 6.75782 q -0.27344,2.304688 -0.27344,11.523438 V 85.10714 h -7.03125 V 67.958702 l 0.15625,-6.40625 h -0.0781 q -2.10937,4.179688 -5.19531,5.976563 -3.08594,1.757812 -8.04687,1.757812 z m 13.16406,-22.421875 q 0,-8.242187 -2.69531,-12.226562 -2.69532,-3.984375 -8.59375,-3.984375 -5.35157,0 -7.69532,3.984375 -2.34375,3.984375 -2.34375,12.695312 0,8.867188 2.34375,12.695313 2.38282,3.828125 7.61719,3.828125 5.97656,0 8.67188,-4.257813 2.69531,-4.257812 2.69531,-12.734375 z"
       style="font-size:80px;fill:#333333"
       id="path1893" />
    <path
       d="m 191.17141,68.505577 v -57.96875 h 7.03125 v 57.96875 z"
       style="font-size:80px;fill:#333333"
       id="path1895" />
    <path
       d="M 208.90578,68.505577 V 26.239952 h 7.03125 v 42.265625 z m 0,-51.25 v -6.71875 h 7.03125 v 6.71875 z"
       style="font-size:80px;fill:#333333"
       id="path1897" />
    <path
       d="m 242.96828,68.193077 q -3.47656,0.9375 -7.10937,0.9375 -8.4375,0 -8.4375,-9.570312 V 31.35714 h -4.88281 v -5.117188 h 5.15625 l 2.07031,-9.453125 h 4.6875 v 9.453125 h 7.8125 v 5.117188 h -7.8125 v 26.679687 q 0,3.046875 0.97656,4.296875 1.01563,1.210938 3.47656,1.210938 1.40625,0 4.0625,-0.546875 z"
       style="font-size:80px;fill:#333333"
       id="path1899" />
    <path
       d="m 254.33547,48.85714 q 0,7.265625 3.00781,11.210937 3.00782,3.945313 8.78907,3.945313 4.57031,0 7.30468,-1.835938 2.77344,-1.835937 3.75,-4.648437 l 6.17188,1.757812 q -3.78906,10 -17.22656,10 -9.375,0 -14.29688,-5.585937 -4.88281,-5.585938 -4.88281,-16.601563 0,-10.46875 4.88281,-16.054687 4.92188,-5.585938 14.02344,-5.585938 18.63281,0 18.63281,22.460938 v 0.9375 z m 22.89063,-5.390625 q -0.58594,-6.679688 -3.39844,-9.726563 -2.8125,-3.085937 -8.08594,-3.085937 -5.11719,0 -8.125,3.4375 -2.96875,3.398437 -3.20312,9.375 z"
       style="font-size:80px;fill:#333333"
       id="path1901" />
  </g>
</svg>
